# Blender3D v249 OBJ File: untitled.blend
# www.blender3d.org
mtllib cube.mtl
v 1.000000 -1.000000 -1.000000
v 1.000000 -1.000000 1.000000
v -1.000000 -1.000000 1.000000
v -1.000000 -1.000000 -1.000000
v 1.000000 1.000000 -1.000000
v 0.999999 1.000000 1.000001
v -1.000000 1.000000 1.000000
v -1.000000 1.000000 -1.000000
vt 0.000000 0.000000
vt 0.000000 0.500000
vt 0.000000 1.000000
vt 0.333333 0.000000
vt 0.333333 0.500000
vt 0.333333 1.000000
vt 0.666666 0.000000
vt 0.666666 0.500000
vt 0.666666 1.000000
vt 1.000000 0.000000
vt 1.000000 0.500000
vt 1.000000 1.000000
vn 1.000000 0.000000 -1.000000
vn -1.000000 -0.000000 -0.000000
vn -0.000000 -0.000000 1.000000
vn -0.000001 0.000000 1.000000
vn 1.000000 -0.000000 0.000000
vn 1.000000 0.000000 0.000001
vn 0.000000 1.000000 -0.000000
vn -0.000000 -1.000000 0.000000
usemtl Material_ray.png
s off
f 5/4/1 1/1/1 4/2/1
f 5/4/1 4/2/1 8/5/1
f 3/5/2 7/2/2 8/3/2
f 3/5/2 8/3/2 4/6/2
f 2/4/3 6/5/3 3/7/3
f 6/5/4 7/8/4 3/7/4
f 1/5/5 5/6/5 2/8/5
f 5/6/6 6/9/6 2/8/6
f 5/7/7 8/8/7 6/10/7
f 8/8/7 7/11/7 6/10/7
f 1/11/8 2/8/8 3/9/8
f 1/11/8 3/9/8 4/12/8
